<?xml version="1.0" encoding="UTF-8" standalone="no"?>
<!-- Created with Inkscape (http://www.inkscape.org/) -->

<svg
   xmlns:dc="http://purl.org/dc/elements/1.1/"
   xmlns:cc="http://creativecommons.org/ns#"
   xmlns:rdf="http://www.w3.org/1999/02/22-rdf-syntax-ns#"
   xmlns:svg="http://www.w3.org/2000/svg"
   xmlns="http://www.w3.org/2000/svg"
   xmlns:sodipodi="http://sodipodi.sourceforge.net/DTD/sodipodi-0.dtd"
   xmlns:inkscape="http://www.inkscape.org/namespaces/inkscape"
   width="160.00999"
   height="73.660004"
   id="svg4997"
   version="1.1"
   inkscape:version="0.48.1 "
   sodipodi:docname="Neues Dokument 3">
  <defs
     id="defs4999" />
  <sodipodi:namedview
     id="base"
     pagecolor="#ffffff"
     bordercolor="#666666"
     borderopacity="1.0"
     inkscape:pageopacity="0.0"
     inkscape:pageshadow="2"
     inkscape:zoom="5.4669442"
     inkscape:cx="80.191755"
     inkscape:cy="36.82007"
     inkscape:document-units="px"
     inkscape:current-layer="layer1"
     showgrid="false"
     fit-margin-top="0"
     fit-margin-left="0"
     fit-margin-right="0"
     fit-margin-bottom="0"
     inkscape:window-width="1024"
     inkscape:window-height="708"
     inkscape:window-x="-4"
     inkscape:window-y="-4"
     inkscape:window-maximized="1" />
  <metadata
     id="metadata5002">
    <rdf:RDF>
      <cc:Work
         rdf:about="">
        <dc:format>image/svg+xml</dc:format>
        <dc:type
           rdf:resource="http://purl.org/dc/dcmitype/StillImage" />
        <dc:title></dc:title>
      </cc:Work>
    </rdf:RDF>
  </metadata>
  <g
     inkscape:label="Ebene 1"
     inkscape:groupmode="layer"
     id="layer1"
     transform="translate(-212.42107,-354.53031)">
    <g
       id="g1940"
       transform="matrix(1.25,0,0,-1.25,341.53983,368.16197)">
      <path
         d="m 0,0 c 5.514,0.837 9.789,-2.891 12.311,-3.782 3.475,-1.228 5.811,5.795 5.811,5.795 0,0 -0.746,-8.683 -4.521,-8.13 -3.343,0.49 -5.91,1.722 -8.955,2.765 -3.046,1.044 -6.679,-0.864 -8.775,-2.354 -6.16,-4.47 -7.14,-6.864 -9.332,-8.744 C -10.289,-10.659 -5.514,-0.837 0,0 m -3.813,6.606 c 0.344,2.139 2.355,3.595 4.495,3.251 C 2.819,9.515 4.274,7.503 3.931,5.364 3.588,3.227 1.576,1.77 -0.56,2.113 -2.7,2.456 -4.156,4.469 -3.813,6.606 m -19.513,-27.048 c -3.597,11.506 -0.177,23.628 9.175,29.4 0.372,0.23 0.875,0.507 1.129,0.648 0.254,0.142 0.901,0.428 0.901,0.428 -0.531,-0.33 -1.035,-0.687 -1.527,-1.056 -0.082,-0.062 -0.165,-0.122 -0.246,-0.185 -0.487,-0.377 -0.955,-0.772 -1.402,-1.187 -0.031,-0.028 -0.06,-0.058 -0.091,-0.087 -0.955,-0.894 -1.82,-1.869 -2.593,-2.913 -2.066,-2.795 -3.476,-6.08 -4.186,-9.619 -0.019,-0.097 -0.035,-0.197 -0.052,-0.295 -0.065,-0.34 -0.125,-0.682 -0.177,-1.026 -0.019,-0.126 -0.033,-0.253 -0.051,-0.379 -0.043,-0.322 -0.082,-0.644 -0.115,-0.969 -0.013,-0.135 -0.023,-0.27 -0.034,-0.405 -0.028,-0.323 -0.051,-0.646 -0.067,-0.97 -0.007,-0.134 -0.011,-0.267 -0.016,-0.4 -0.012,-0.334 -0.018,-0.668 -0.019,-1.004 0,-0.124 10e-4,-0.247 0.002,-0.372 0.004,-0.354 0.015,-0.71 0.032,-1.066 0.005,-0.105 0.01,-0.21 0.015,-0.314 0.023,-0.391 0.055,-0.782 0.094,-1.174 0.007,-0.071 0.012,-0.142 0.019,-0.213 0.048,-0.454 0.106,-0.91 0.175,-1.366 10e-4,-0.008 0.002,-0.016 0.003,-0.025 0.328,-2.157 0.898,-4.323 1.705,-6.456 2.939,-0.642 10.924,-2.189 12.711,-0.496 2.13,1.761 4.631,8.364 8.241,10.453 4.628,2.212 12.05,-3.342 14.329,-5.636 2.941,-2.996 9.004,-10.984 9.004,-10.984 0,0 -12.85,12.142 -20.216,13.046 -3.732,0.381 -5.375,-6.54 -10.128,-9.076 -3.607,-1.573 -11.231,0.866 -13.54,1.671 0.646,-1.55 1.42,-3.077 2.331,-4.565 3.409,-5.569 8.152,-9.697 13.347,-12.118 0.005,-0.003 0.01,-0.006 0.016,-0.009 0.012,-0.006 0.025,-0.01 0.037,-0.016 1.242,-0.575 2.509,-1.051 3.79,-1.427 0.045,-0.014 0.09,-0.028 0.135,-0.041 0.629,-0.18 1.26,-0.338 1.894,-0.469 0.034,-0.008 0.068,-0.014 0.103,-0.02 0.631,-0.129 1.264,-0.234 1.897,-0.313 0.016,-0.002 0.032,-0.004 0.046,-0.006 0.615,-0.075 1.228,-0.121 1.84,-0.148 0.099,-0.004 0.197,-0.008 0.295,-0.011 0.6,-0.019 1.199,-0.019 1.795,0.01 0.062,0.002 0.124,0.009 0.185,0.012 0.557,0.031 1.11,0.084 1.661,0.156 0.091,0.012 0.182,0.02 0.272,0.033 0.57,0.082 1.137,0.189 1.699,0.317 0.054,0.012 0.109,0.018 0.162,0.03 -0.379,-0.325 -1.585,-0.648 -2.999,-0.882 -5.308,-0.983 -10.972,0.003 -16.109,2.691 7.868,-4.618 17.199,-5.175 24.626,-0.593 2.885,1.78 5.201,4.169 6.925,6.952 0.106,0.148 0.203,0.29 0.298,0.432 -1.782,-3.542 -4.425,-6.573 -7.902,-8.718 -11.398,-7.033 -27.285,-1.966 -35.482,11.319 -1.864,3.022 -3.167,6.208 -3.937,9.411"
         style="fill:#ed1c24;fill-opacity:1;fill-rule:nonzero;stroke:none"
         id="path1942"
         inkscape:connector-curvature="0" />
    </g>
    <g
       id="g1944"
       transform="matrix(1.25,0,0,-1.25,309.50233,421.50947)">
      <path
         d="m 0,0 c -1.852,0 -2.414,1.72 -2.414,3.257 0,1.637 0.728,3.107 2.53,3.107 1.769,0 2.43,-1.553 2.43,-3.057 C 2.546,1.703 1.852,0 0,0 m 2.612,7.406 0,-1.224 -0.016,0 C 2.083,7.124 1.124,7.604 0.05,7.604 c -2.96,0 -3.952,-2.495 -3.952,-4.512 0,-2.332 1.273,-4.332 3.819,-4.332 1.075,0 2.199,0.513 2.662,1.554 l 0.033,0 0,-0.562 c 0,-1.918 -0.727,-3.24 -2.562,-3.24 -0.927,0 -2.15,0.363 -2.216,1.388 l -1.405,0 c 0.083,-1.868 1.935,-2.513 3.537,-2.513 2.696,0 3.969,1.422 3.969,4.2 l 0,7.819 -1.323,0 z m -35.04,0.198 c -1.092,0 -2.1,-0.546 -2.678,-1.455 -0.347,1.042 -1.306,1.455 -2.347,1.455 -1.175,0 -2.133,-0.496 -2.761,-1.455 l -0.033,0 0,1.257 -1.323,0 0,-8.547 1.405,0 0,5.324 c 0,0.645 0.612,2.181 2.281,2.181 1.257,0 1.604,-0.794 1.604,-1.9 l 0,-5.605 1.405,0 0,5.324 c 0,1.322 0.876,2.181 2.231,2.181 1.373,0 1.654,-0.843 1.654,-1.9 l 0,-5.605 1.405,0 0,6.265 c 0,1.769 -1.141,2.48 -2.843,2.48 M -45.155,1.835 c 0,-0.777 -0.761,-1.935 -2.613,-1.935 -0.859,0 -1.653,0.331 -1.653,1.257 0,1.042 0.794,1.372 1.72,1.538 0.942,0.165 2,0.182 2.546,0.578 l 0,-1.438 z m 1.404,-0.975 0,4.396 c 0,2.001 -1.669,2.348 -3.206,2.348 -1.902,0 -3.539,-0.744 -3.621,-2.859 l 1.405,0 c 0.066,1.255 0.943,1.619 2.133,1.619 0.893,0 1.901,-0.198 1.901,-1.42 0,-1.059 -1.323,-0.96 -2.877,-1.257 -1.454,-0.281 -2.893,-0.695 -2.893,-2.629 0,-1.703 1.273,-2.397 2.827,-2.397 1.191,0 2.232,0.413 3.009,1.322 0,-0.926 0.462,-1.322 1.189,-1.322 0.447,0 0.761,0.083 1.009,0.231 l 0,1.091 c -0.181,-0.066 -0.314,-0.083 -0.429,-0.083 -0.447,0 -0.447,0.298 -0.447,0.96 m 36.576,4.744 -0.033,0 0,1.802 -1.322,0 0,-8.547 1.406,0 0,3.802 c 0,2.167 0.826,3.455 3.09,3.455 l 0,1.488 c -1.52,0.049 -2.463,-0.628 -3.141,-2 M -23.372,-0.1 c -1.933,0 -2.694,1.555 -2.694,3.241 0,1.604 0.728,3.223 2.611,3.223 1.819,0 2.646,-1.553 2.646,-3.157 0,-1.669 -0.645,-3.307 -2.563,-3.307 m 0.116,7.704 c -1.174,0 -2.264,-0.413 -2.727,-1.356 l -0.033,0 0,4.415 -1.406,0 0,-11.804 1.406,0 0,1.141 0.033,0 c 0.628,-1.009 1.883,-1.339 2.759,-1.339 2.613,0 3.902,2.033 3.902,4.447 0,2.413 -1.305,4.496 -3.934,4.496 m -31.105,-2.017 -6.216,0 0,5.076 -1.571,0 0,-11.804 1.571,0 0,5.406 6.216,0 0,-5.406 1.57,0 0,11.804 -1.57,0 0,-5.076 z m 42.36,-3.008 c 0,-1.538 -0.826,-2.679 -2.529,-2.679 -1.074,0 -1.735,0.679 -1.735,1.72 l 0,5.786 -1.406,0 0,-5.62 c 0,-1.836 0.695,-3.125 2.942,-3.125 1.224,0 2.183,0.496 2.778,1.554 l 0.033,0 0,-1.356 1.323,0 0,8.547 -1.406,0 0,-4.827 z m -7.379,33.056 c -1.935,0 -2.695,1.554 -2.695,3.24 0,1.604 0.728,3.224 2.612,3.224 1.819,0 2.646,-1.553 2.646,-3.157 0,-1.67 -0.645,-3.307 -2.563,-3.307 m 4.051,3.208 c 0,2.413 -1.307,4.497 -3.935,4.497 -1.174,0 -2.265,-0.414 -2.728,-1.356 l -0.034,0 0,1.157 -1.405,0 0,-11.82 1.405,0 0,4.413 0.034,0 c 0.628,-1.007 1.885,-1.338 2.761,-1.338 2.612,0 3.902,2.033 3.902,4.447 m 6.94,-1.273 c 0,-0.777 -0.76,-1.935 -2.612,-1.935 -0.86,0 -1.653,0.331 -1.653,1.256 0,1.042 0.793,1.373 1.719,1.538 0.943,0.165 2.001,0.182 2.546,0.579 l 0,-1.438 z m 1.273,-3.174 c 0.446,0 0.761,0.083 1.009,0.232 l 0,1.09 c -0.182,-0.066 -0.314,-0.083 -0.43,-0.083 -0.447,0 -0.447,0.298 -0.447,0.959 l 0,4.398 c 0,2 -1.669,2.348 -3.207,2.348 -1.901,0 -3.538,-0.744 -3.621,-2.861 l 1.405,0 c 0.067,1.257 0.943,1.62 2.133,1.62 0.893,0 1.902,-0.198 1.902,-1.421 0,-1.058 -1.323,-0.959 -2.877,-1.257 -1.455,-0.281 -2.893,-0.694 -2.893,-2.628 0,-1.703 1.273,-2.397 2.827,-2.397 1.191,0 2.232,0.414 3.009,1.322 0,-0.925 0.463,-1.322 1.19,-1.322 M -50.751,40 l 6.216,0 0,-5.405 1.57,0 0,11.802 -1.57,0 0,-5.075 -6.216,0 0,5.075 -1.57,0 0,-11.802 1.57,0 0,5.405 z m 15.422,-2.43 c 0,-0.777 -0.76,-1.935 -2.612,-1.935 -0.86,0 -1.654,0.331 -1.654,1.256 0,1.042 0.794,1.373 1.72,1.538 0.942,0.165 2,0.182 2.546,0.579 l 0,-1.438 z m -2.86,1.851 c -1.455,-0.281 -2.893,-0.694 -2.893,-2.628 0,-1.703 1.272,-2.397 2.827,-2.397 1.19,0 2.232,0.414 3.009,1.322 0,-0.925 0.461,-1.322 1.189,-1.322 0.446,0 0.761,0.083 1.009,0.232 l 0,1.09 c -0.182,-0.066 -0.314,-0.083 -0.431,-0.083 -0.446,0 -0.446,0.298 -0.446,0.959 l 0,4.398 c 0,2 -1.669,2.348 -3.206,2.348 -1.901,0 -3.538,-0.744 -3.621,-2.861 l 1.405,0 c 0.066,1.257 0.943,1.62 2.133,1.62 0.893,0 1.902,-0.198 1.902,-1.421 0,-1.058 -1.323,-0.959 -2.877,-1.257 m 13.156,-2.331 c 0,1.653 -1.387,2.116 -2.792,2.431 -1.307,0.314 -2.795,0.479 -2.795,1.487 0,0.86 0.975,1.091 1.819,1.091 0.925,0 1.885,-0.346 1.984,-1.438 l 1.405,0 c -0.116,2.084 -1.62,2.679 -3.505,2.679 -1.488,0 -3.191,-0.711 -3.191,-2.431 0,-1.637 1.405,-2.1 2.794,-2.414 1.405,-0.314 2.794,-0.496 2.794,-1.587 0,-1.075 -1.19,-1.273 -2.066,-1.273 -1.157,0 -2.249,0.397 -2.299,1.654 l -1.405,0 c 0.083,-2.116 1.703,-2.893 3.621,-2.893 1.736,0 3.636,0.661 3.636,2.694"
         style="fill:#231f20;fill-opacity:1;fill-rule:nonzero;stroke:none"
         id="path1946"
         inkscape:connector-curvature="0" />
    </g>
    <g
       id="g1948"
       transform="matrix(1.25,0,0,-1.25,276.82483,389.83947)">
      <path
         d="M 0,0 C -0.736,0.294 -1.509,0.343 -2.319,0.147 -3.128,-0.05 -3.754,-0.515 -4.197,-1.251 l 0,2.907 C -4.197,2 -4.319,2.294 -4.564,2.54 -4.81,2.784 -5.103,2.908 -5.447,2.908 l -1.251,0 0,-12.66 2.501,0 0,5.041 c 0,0.858 0.185,1.534 0.552,2.024 0.369,0.491 0.897,0.736 1.584,0.736 0.638,0 1.14,-0.257 1.509,-0.772 0.22,-0.32 0.362,-0.633 0.423,-0.939 0.061,-0.307 0.092,-0.644 0.092,-1.012 l 0,-5.078 2.465,0 0,5.704 c 0,1.128 -0.232,2.011 -0.698,2.649 C 1.263,-0.761 0.687,-0.294 0,0 m 20.754,-0.589 c -0.908,0.564 -1.902,0.847 -2.981,0.847 -1.056,-0.05 -2.019,-0.356 -2.889,-0.92 -0.87,-0.565 -1.306,-1.682 -1.306,-3.349 l 0,-5.741 2.576,0 0,6.256 c 0,0.588 0.171,1.018 0.515,1.288 0.343,0.27 0.736,0.405 1.177,0.405 0.442,0 0.841,-0.135 1.197,-0.405 0.355,-0.27 0.533,-0.7 0.533,-1.288 l 0,-5.005 c 0,-0.368 0.117,-0.669 0.35,-0.901 0.234,-0.234 0.532,-0.35 0.902,-0.35 l 1.288,0 0,5.741 c 0,1.717 -0.455,2.858 -1.362,3.422 M 9.439,-6.955 C 9.144,-7.397 8.806,-7.673 8.426,-7.783 8.045,-7.893 7.672,-7.882 7.303,-7.746 c -0.367,0.134 -0.625,0.3 -0.772,0.496 -0.368,0.442 -0.577,1.221 -0.626,2.337 -0.05,1.116 0.184,1.956 0.7,2.521 0.171,0.171 0.441,0.313 0.809,0.423 0.368,0.111 0.736,0.104 1.104,-0.018 C 8.885,-2.111 9.211,-2.392 9.493,-2.834 9.775,-3.276 9.917,-3.938 9.917,-4.821 9.892,-5.802 9.733,-6.513 9.439,-6.955 m 0.294,6.918 C 8.923,0.258 8.015,0.337 7.009,0.203 6.003,0.067 5.181,-0.368 4.544,-1.104 4.152,-1.546 3.864,-2.098 3.678,-2.76 3.495,-3.423 3.404,-4.086 3.404,-4.748 c 0,-0.808 0.11,-1.588 0.33,-2.336 0.22,-0.749 0.589,-1.343 1.104,-1.785 0.491,-0.442 1.146,-0.754 1.969,-0.939 0.822,-0.184 1.638,-0.165 2.447,0.056 0.907,0.196 1.656,0.699 2.246,1.509 0.269,0.392 0.49,0.871 0.661,1.435 0.172,0.564 0.258,1.239 0.258,2.023 0,1.08 -0.208,2.025 -0.625,2.834 -0.442,0.908 -1.129,1.546 -2.061,1.914 M -9.181,1.656 c 0,0.344 -0.123,0.638 -0.369,0.884 -0.246,0.244 -0.527,0.368 -0.846,0.368 l -1.325,0 0,-10.82 c 0,-1.129 0.472,-1.73 1.417,-1.803 0.944,-0.074 1.822,-0.086 2.631,-0.037 l 0,1.914 -0.772,0 c -0.491,0 -0.736,0.207 -0.736,0.626 l 0,5.445 0.257,0 c 0.344,0 0.638,0.117 0.882,0.35 0.246,0.233 0.369,0.534 0.369,0.902 l 0,0.515 -1.508,0 0,1.656 z m -6.349,-7.397 c 0,-0.687 -0.197,-1.227 -0.588,-1.619 -0.393,-0.393 -0.933,-0.589 -1.62,-0.589 -0.417,0 -0.736,0.098 -0.957,0.295 -0.222,0.221 -0.331,0.515 -0.331,0.883 0,0.27 0.086,0.54 0.256,0.809 0.198,0.197 0.517,0.356 0.959,0.479 l 0.846,0.184 c 0.613,0.147 1.092,0.306 1.435,0.478 l 0,-0.92 z m 1.324,5.299 c -0.687,0.466 -1.716,0.7 -3.09,0.7 -1.227,0 -2.172,-0.283 -2.834,-0.847 -0.589,-0.491 -0.933,-1.117 -1.031,-1.877 l 2.466,0 c 0.123,0.27 0.319,0.454 0.589,0.552 0.269,0.098 0.576,0.147 0.92,0.147 0.319,0 0.669,-0.055 1.049,-0.165 0.38,-0.111 0.57,-0.35 0.57,-0.718 0,-0.491 -0.539,-0.81 -1.619,-0.957 -0.222,-0.025 -0.417,-0.055 -0.589,-0.092 -0.172,-0.037 -0.319,-0.055 -0.442,-0.055 -0.932,-0.147 -1.7,-0.442 -2.299,-0.883 -0.602,-0.442 -0.902,-1.177 -0.902,-2.208 0,-1.104 0.331,-1.895 0.993,-2.373 0.663,-0.479 1.435,-0.718 2.319,-0.718 0.442,0 0.95,0.031 1.527,0.092 0.576,0.061 1.123,0.226 1.638,0.497 0.489,0.245 0.912,0.644 1.269,1.196 0.355,0.552 0.534,1.319 0.534,2.3 l 0,3.349 c 0,0.883 -0.356,1.569 -1.068,2.06 m -9.926,0.221 c -0.626,-0.171 -1.171,-0.441 -1.638,-0.81 -0.49,-0.392 -0.877,-0.914 -1.16,-1.564 -0.281,-0.65 -0.422,-1.453 -0.422,-2.41 l 0,-4.747 2.576,0 0,5.041 c 0,0.736 0.171,1.275 0.515,1.619 0.343,0.344 0.87,0.515 1.581,0.515 l 0.848,0 0,2.614 -0.369,0 c -0.662,0 -1.306,-0.087 -1.931,-0.258 m -20.147,-6.513 -2.502,9.678 -2.539,0 C -49.688,2.92 -50.001,2.779 -50.259,2.522 -50.516,2.264 -50.645,1.951 -50.645,1.583 l 0,-11.335 2.429,0 0,10.23 2.613,-10.23 2.686,0 2.576,10.23 0,-10.23 2.43,0 0,12.696 -3.865,0 -2.503,-9.678 z m 13.414,0.993 c 0,-0.687 -0.197,-1.227 -0.589,-1.619 -0.392,-0.393 -0.933,-0.589 -1.619,-0.589 -0.418,0 -0.736,0.098 -0.958,0.295 -0.22,0.221 -0.331,0.515 -0.331,0.883 0,0.27 0.086,0.54 0.258,0.809 0.196,0.197 0.515,0.356 0.957,0.479 l 0.846,0.184 c 0.613,0.147 1.092,0.306 1.436,0.478 l 0,-0.92 z m 1.325,5.299 c -0.687,0.466 -1.718,0.7 -3.092,0.7 -1.227,0 -2.171,-0.283 -2.833,-0.847 -0.59,-0.491 -0.933,-1.117 -1.03,-1.877 l 2.464,0 c 0.123,0.27 0.319,0.454 0.59,0.552 0.269,0.098 0.576,0.147 0.919,0.147 0.319,0 0.669,-0.055 1.05,-0.165 0.38,-0.111 0.57,-0.35 0.57,-0.718 0,-0.491 -0.54,-0.81 -1.62,-0.957 -0.22,-0.025 -0.417,-0.055 -0.588,-0.092 -0.173,-0.037 -0.32,-0.055 -0.442,-0.055 -0.932,-0.147 -1.698,-0.442 -2.3,-0.883 -0.601,-0.442 -0.901,-1.177 -0.901,-2.208 0,-1.104 0.331,-1.895 0.994,-2.373 0.661,-0.479 1.435,-0.718 2.318,-0.718 0.441,0 0.95,0.031 1.527,0.092 0.575,0.061 1.122,0.226 1.638,0.497 0.49,0.245 0.914,0.644 1.269,1.196 0.356,0.552 0.534,1.319 0.534,2.3 l 0,3.349 c 0,0.883 -0.355,1.569 -1.067,2.06"
         style="fill:#ed1c24;fill-opacity:1;fill-rule:nonzero;stroke:none"
         id="path1950"
         inkscape:connector-curvature="0" />
    </g>
  </g>
</svg>
